<?xml version="1.0" encoding="UTF-8"?>
<svg id="Layer_1" xmlns="http://www.w3.org/2000/svg" baseProfile="tiny" version="1.2" viewBox="0 0 1116.5 171.6">
  <!-- Generator: Adobe Illustrator 29.8.1, SVG Export Plug-In . SVG Version: 2.1.1 Build 2)  -->
  <path d="M157.5,36.6v18.4h29.1v80.3h23.8V55h29.6v-18.4h-82.4Z" fill="#fff"/>
  <path d="M311.5,36.6v39.1h-35v-39.1h-23.8v98.6h23.8v-41.2h35v41.2h23.6V36.6h-23.6Z" fill="#fff"/>
  <path d="M409.1,94.4c5.9-2.8,10.3-6.4,13-11,2.8-4.5,4.2-10.2,4.2-17s-3.3-16.8-9.9-22c-6.6-5.2-15.7-7.8-27.4-7.8h-38.8v98.6h23.8v-34.9h12.9l17.4,34.9h25.5v-1l-20.6-39.8ZM399.2,78.5c-2.3,2.4-5.7,3.6-10.2,3.6h-15v-27.2h15c4.5,0,7.8,1.2,10.2,3.6,2.3,2.4,3.5,5.8,3.5,10s-1.1,7.6-3.4,10Z" fill="#fff"/>
  <path d="M508.7,55v-18.4h-68.1v98.6h67.9v-18.3h-44.2v-23.6h37.4v-17.6h-37.4v-20.8h44.3Z" fill="#fff"/>
  <path d="M571.9,36.6h-22.3l-36.2,98.6h25.4l5.7-18.4h32.6l5.8,18.4h25.5l-36.4-98.6ZM550.1,98.5l10.6-34.2,10.6,34.2h-21.2Z" fill="#fff"/>
  <path d="M591.2,36.6v18.4h29.1v80.3h23.8V55h18.4l10.2-18.4h-81.4Z" fill="#fff"/>
  <path d="M752.5,59.3c-3.9-7.2-9.3-12.8-16.3-16.7-7-4-14.8-5.9-23.5-5.9h-29.7l-10.2,18.4h39.9c7,0,12.3,2.4,16,7.3,3.7,4.8,5.5,12,5.5,21.5v4.3c0,9.6-1.8,16.8-5.5,21.6-3.7,4.9-8.9,7.3-15.7,7.3h-8.3v-44.4h-23.8v62.7h32.4c8.5,0,16.3-2.1,23.2-6.1,6.9-4,12.3-9.6,16.1-16.8,3.8-7.2,5.7-15.3,5.7-24.3v-4.5c0-8.9-2-17-5.9-24.2Z" fill="#fff"/>
  <path d="M845.8,58.2c-3.6-7.3-8.7-13-15.3-17-6.5-4-14-6-22.4-6s-16,2-22.6,6c-6.6,4-11.7,9.7-15.2,17.1-3.5,7.4-5.3,15.9-5.3,25.6v5.6c.2,9.3,2.1,17.5,5.7,24.7,3.6,7.2,8.7,12.7,15.2,16.6,6.5,3.9,14,5.8,22.3,5.8s15.9-2,22.5-6c6.6-4,11.6-9.7,15.2-17.1,3.6-7.4,5.4-15.9,5.4-25.5v-4.5c0-9.5-1.9-17.9-5.5-25.2ZM827.1,88.4c0,9.6-1.7,16.9-4.9,22-3.2,5.1-7.9,7.7-13.9,7.7s-11.1-2.6-14.3-7.8c-3.2-5.2-4.8-12.6-4.8-22.3v-7.3c.7-17.9,7.1-26.8,19-26.8s10.8,2.5,14.1,7.6c3.3,5.1,4.9,12.5,4.9,22.3v4.5Z" fill="#fff"/>
  <path d="M945.7,36.6l-11.3,61.8-13.7-61.8h-20.2l-13.5,61.8-11.3-61.8h-23.6l21,98.6h24.6l12.9-56.2,13.2,56.2h24.7l20.9-98.6h-23.6,0Z" fill="#fff"/>
  <path d="M1037.2,36.6v61.4l-34.9-61.4h-23.8v98.6h23.8v-61.4l34.9,61.4h23.6V36.6h-23.7,0Z" fill="#fff"/>
  <g>
    <path d="M130.8,40.7l-22.4-22.4-34.6,34.6L39.2,18.3l-22.4,22.4,34.6,34.6h0c0,0,22.4,22.5,22.4,22.5h0c0,0,0,0,0,0l22.4-22.4h0c0,0,34.6-34.6,34.6-34.6Z" fill="#fff"/>
    <path d="M130.8,96.4l-22.4-22.4-34.6,34.6-34.6-34.6-22.4,22.4,34.6,34.6h0c0,0,22.4,22.5,22.4,22.5h0c0,0,0,0,0,0l22.4-22.4h0c0,0,34.6-34.6,34.6-34.6Z" fill="#fff"/>
  </g>
  <path d="M1074.9,38.7h-4.7v-2.1h12v2.1h-4.6v13.3h-2.7v-13.3ZM1084.9,36.6h3.7l4.3,10.8,4.2-10.8h3.7v15.4h-2.7v-12l-4.9,12h-.9l-5-12v12h-2.4v-15.4Z" fill="#fff"/>
</svg>